<svg width="451" height="376" viewBox="0 0 451 376" fill="none" xmlns="http://www.w3.org/2000/svg">
<g clip-path="url(#clip0_68_2)">
<path d="M384.855 13.429L355.82 338.68L225.305 374.861L95.1497 338.73L66.1445 13.429H384.855Z" fill="#E44D26"/>
<path d="M225.5 347.205L330.963 317.969L355.774 40.0265H225.5V347.205Z" fill="#F16529"/>
<path d="M169.056 119.822H225.5V79.9246H125.452L126.406 90.6281L136.213 200.573H225.5V160.677H172.703L169.056 119.822ZM178.049 220.522H137.996L143.585 283.167L225.316 305.853L225.5 305.803V264.293L225.325 264.339L180.89 252.342L178.049 220.522Z" fill="#EBEBEB"/>
<path d="M225.363 200.573H274.494L269.862 252.317L225.361 264.327V305.834L307.157 283.167L307.757 276.426L317.134 171.39L318.107 160.677H225.363V200.573ZM225.363 119.724V119.822H321.738L322.537 110.854L324.356 90.6281L325.31 79.9246H225.363V119.724Z" fill="white"/>
</g>
<defs>
<clipPath id="clip0_68_2">
<rect width="451" height="376" fill="white"/>
</clipPath>
</defs>
</svg>
